<svg width="199" height="48" viewBox="0 0 199 48" fill="none" xmlns="http://www.w3.org/2000/svg">
<path d="M17.3475 0L4.20836 28.0475H1.92188L2.40367 26.9587L14.2798 0H17.3475Z" fill="#5B9B37"/>
<path d="M35.7465 0L24.5781 17.5651H22.0031L32.6788 0H35.7465Z" fill="#5B9B37"/>
<path d="M23.4802 0L8.77595 28.0475H6.49219L7.03114 26.9587L20.4125 0H23.4802Z" fill="#5B9B37"/>
<path d="M29.6131 0L19.8601 16.8165L19.4273 17.5651H16.8469L26.5454 0H29.6131Z" fill="#5B9B37"/>
<path d="M23.2442 19.7695L5.25181 47.9994H3.50156L20.7073 19.7695H23.2442Z" fill="#5B9B37"/>
<path d="M18.1694 19.7695L1.75025 47.9994H0L15.6297 19.7695H18.1694Z" fill="#5B9B37"/>
<path d="M28.3218 19.7695L8.75337 47.9994H7.00313L25.7822 19.7695H28.3218Z" fill="#5B9B37"/>
<path d="M33.3987 19.7695L12.2596 47.9994H10.5094L30.8618 19.7695H33.3987Z" fill="#5B9B37"/>
<path d="M56.0422 27.0046C56.6509 27.3483 57.2668 27.6599 57.8899 27.9392C58.5201 28.2113 59.1718 28.444 59.8449 28.6374C60.5181 28.8236 61.2235 28.9668 61.9611 29.0671C62.7059 29.1673 63.4973 29.2175 64.3352 29.2175C65.3449 29.2175 66.2043 29.153 66.9133 29.0241C67.6223 28.888 68.1988 28.7054 68.6428 28.4763C69.094 28.2399 69.4198 27.9606 69.6203 27.6384C69.828 27.3161 69.9319 26.9652 69.9319 26.5856C69.9319 25.9769 69.6776 25.4971 69.1692 25.1462C68.6607 24.7881 67.8765 24.6091 66.8166 24.6091C66.3511 24.6091 65.8606 24.6413 65.3449 24.7058C64.8293 24.763 64.3065 24.8275 63.7766 24.8991C63.2538 24.9707 62.7346 25.0388 62.219 25.1032C61.7105 25.1605 61.2307 25.1892 60.7795 25.1892C60.0276 25.1892 59.3042 25.0925 58.6096 24.8991C57.9221 24.7058 57.3098 24.4157 56.7727 24.029C56.2427 23.6423 55.8202 23.1589 55.5051 22.5788C55.19 21.9987 55.0324 21.322 55.0324 20.5485C55.0324 20.0902 55.0933 19.6354 55.2151 19.1843C55.344 18.7331 55.5445 18.3034 55.8166 17.8952C56.0959 17.4798 56.454 17.0967 56.8908 16.7458C57.3277 16.3877 57.854 16.0798 58.4699 15.822C59.093 15.5642 59.8091 15.3636 60.6184 15.2204C61.4348 15.07 62.3622 14.9948 63.4006 14.9948C64.1526 14.9948 64.9081 15.0378 65.6672 15.1237C66.4263 15.2025 67.1639 15.3171 67.8801 15.4675C68.6034 15.6179 69.2981 15.8005 69.9641 16.0153C70.6301 16.223 71.2496 16.4558 71.8225 16.7136L70.3293 19.4636C69.8567 19.2559 69.3482 19.0661 68.8039 18.8942C68.2597 18.7152 67.6903 18.5612 67.0959 18.4323C66.5015 18.3034 65.8856 18.2032 65.2483 18.1315C64.618 18.0528 63.9735 18.0134 63.3147 18.0134C62.3765 18.0134 61.6031 18.0814 60.9944 18.2175C60.3928 18.3535 59.913 18.529 59.5549 18.7438C59.1968 18.9515 58.9462 19.1879 58.8029 19.4528C58.6669 19.7106 58.5988 19.9685 58.5988 20.2263C58.5988 20.7276 58.8244 21.1394 59.2756 21.4616C59.7268 21.7767 60.4143 21.9343 61.3381 21.9343C61.7105 21.9343 62.1366 21.9092 62.6164 21.8591C63.1034 21.8018 63.6119 21.7409 64.1418 21.6765C64.6789 21.612 65.2232 21.5547 65.7746 21.5046C66.3332 21.4473 66.8739 21.4186 67.3967 21.4186C68.385 21.4186 69.2587 21.5296 70.0178 21.7517C70.7841 21.9737 71.425 22.2923 71.9406 22.7077C72.4563 23.1159 72.8466 23.6136 73.1115 24.2009C73.3765 24.781 73.509 25.4326 73.509 26.156C73.509 27.1227 73.2834 27.9857 72.8322 28.7448C72.3882 29.4968 71.7509 30.1341 70.9201 30.6569C70.0966 31.1726 69.1011 31.5664 67.9338 31.8386C66.7665 32.1035 65.4667 32.236 64.0344 32.236C63.0891 32.236 62.1652 32.1752 61.2629 32.0534C60.3606 31.9388 59.494 31.7741 58.6633 31.5593C57.8397 31.3373 57.052 31.0759 56.3 30.7751C55.5552 30.4671 54.8641 30.1306 54.2268 29.7653L56.0422 27.0046Z" fill="#1F242C"/>
<path d="M76.0979 25.6618C76.0979 24.7523 76.2805 23.9001 76.6457 23.1052C77.0181 22.3102 77.5445 21.6156 78.2248 21.0212C78.9123 20.4268 79.7395 19.9577 80.7063 19.614C81.6802 19.2702 82.7723 19.0983 83.9826 19.0983C85.1929 19.0983 86.2815 19.2702 87.2483 19.614C88.2222 19.9577 89.0494 20.4268 89.7297 21.0212C90.4172 21.6156 90.9436 22.3102 91.3088 23.1052C91.6812 23.9001 91.8674 24.7523 91.8674 25.6618C91.8674 26.5713 91.6812 27.4235 91.3088 28.2185C90.9436 29.0134 90.4172 29.708 89.7297 30.3024C89.0494 30.8968 88.2222 31.3659 87.2483 31.7097C86.2815 32.0534 85.1929 32.2253 83.9826 32.2253C82.7723 32.2253 81.6802 32.0534 80.7063 31.7097C79.7395 31.3659 78.9123 30.8968 78.2248 30.3024C77.5445 29.708 77.0181 29.0134 76.6457 28.2185C76.2805 27.4235 76.0979 26.5713 76.0979 25.6618ZM79.4387 25.6618C79.4387 26.1703 79.5389 26.6537 79.7395 27.112C79.9472 27.5632 80.2444 27.9642 80.6311 28.3151C81.025 28.6589 81.5012 28.9346 82.0598 29.1423C82.6255 29.3428 83.2665 29.4431 83.9826 29.4431C84.6988 29.4431 85.3362 29.3428 85.8947 29.1423C86.4605 28.9346 86.9367 28.6589 87.3235 28.3151C87.7173 27.9642 88.0145 27.5632 88.2151 27.112C88.4227 26.6537 88.5266 26.1703 88.5266 25.6618C88.5266 25.1533 88.4227 24.67 88.2151 24.2116C88.0145 23.7533 87.7173 23.3522 87.3235 23.0085C86.9367 22.6576 86.4605 22.3819 85.8947 22.1813C85.3362 21.9737 84.6988 21.8698 83.9826 21.8698C83.2665 21.8698 82.6255 21.9737 82.0598 22.1813C81.5012 22.3819 81.025 22.6576 80.6311 23.0085C80.2444 23.3522 79.9472 23.7533 79.7395 24.2116C79.5389 24.67 79.4387 25.1533 79.4387 25.6618Z" fill="#1F242C"/>
<path d="M95.1653 14.1784H98.3449V31.9997H95.1653V14.1784Z" fill="#1F242C"/>
<path d="M101.825 28.0036C101.825 27.3949 101.958 26.8399 102.223 26.3386C102.488 25.8373 102.885 25.4076 103.415 25.0495C103.945 24.6843 104.604 24.405 105.392 24.2116C106.187 24.0111 107.111 23.9108 108.163 23.9108C108.944 23.9108 109.764 23.9681 110.623 24.0827C111.49 24.1973 112.381 24.3727 113.298 24.6091C113.262 24.208 113.141 23.8392 112.933 23.5026C112.725 23.1589 112.435 22.8653 112.063 22.6218C111.697 22.3711 111.253 22.1778 110.731 22.0417C110.215 21.9056 109.628 21.8376 108.969 21.8376C108.611 21.8376 108.217 21.8591 107.787 21.902C107.358 21.945 106.914 22.0095 106.455 22.0954C105.997 22.1813 105.542 22.2888 105.091 22.4177C104.647 22.5466 104.232 22.7005 103.845 22.8796L102.878 20.2692C103.358 20.0974 103.87 19.9398 104.414 19.7966C104.966 19.6533 105.528 19.5316 106.101 19.4313C106.674 19.3239 107.247 19.2416 107.82 19.1843C108.392 19.127 108.947 19.0983 109.485 19.0983C111.855 19.0983 113.617 19.7035 114.77 20.9138C115.923 22.1241 116.499 23.9789 116.499 26.4782V31.9997H113.32V30.8073C112.99 31.0007 112.628 31.1833 112.235 31.3552C111.848 31.527 111.425 31.6774 110.967 31.8063C110.509 31.9352 110.015 32.0355 109.485 32.1071C108.962 32.1859 108.407 32.2253 107.82 32.2253C106.831 32.2253 105.961 32.1179 105.209 31.903C104.464 31.6882 103.841 31.391 103.34 31.0114C102.839 30.6319 102.459 30.1879 102.201 29.6794C101.951 29.1638 101.825 28.6052 101.825 28.0036ZM105.177 27.8962C105.177 28.1039 105.231 28.3044 105.338 28.4977C105.446 28.6839 105.617 28.8522 105.854 29.0026C106.09 29.1459 106.391 29.264 106.756 29.3571C107.128 29.4431 107.576 29.486 108.099 29.486C108.657 29.486 109.198 29.4359 109.721 29.3356C110.244 29.2354 110.731 29.1029 111.182 28.9382C111.633 28.7735 112.041 28.5837 112.406 28.3688C112.772 28.154 113.076 27.932 113.32 27.7028V27.1442C112.833 27.0082 112.349 26.8936 111.869 26.8005C111.397 26.7074 110.942 26.6358 110.505 26.5856C110.075 26.5283 109.667 26.489 109.28 26.4675C108.901 26.446 108.568 26.4352 108.281 26.4352C107.687 26.4352 107.193 26.4746 106.799 26.5534C106.405 26.6322 106.086 26.7396 105.843 26.8757C105.599 27.0046 105.428 27.1586 105.327 27.3376C105.227 27.5166 105.177 27.7028 105.177 27.8962Z" fill="#1F242C"/>
<path d="M120.71 19.3239H123.89V21.1501C124.592 20.6273 125.333 20.1761 126.113 19.7966C126.894 19.417 127.671 19.127 128.445 18.9265L129.379 21.8376C128.155 21.9593 127.077 22.2351 126.146 22.6647C125.222 23.0873 124.47 23.6852 123.89 24.4587V31.9997H120.71V19.3239Z" fill="#1F242C"/>
<path d="M131.001 23.4489C131.001 22.2673 131.223 21.1644 131.667 20.1403C132.111 19.1091 132.759 18.2139 133.612 17.4548C134.464 16.6957 135.509 16.0977 136.748 15.6608C137.994 15.224 139.419 15.0056 141.024 15.0056C141.604 15.0056 142.184 15.0378 142.764 15.1022C143.351 15.1595 143.928 15.2526 144.493 15.3815C145.066 15.5104 145.621 15.6752 146.158 15.8757C146.703 16.069 147.218 16.3018 147.705 16.5739L146.137 19.152C145.843 18.9802 145.51 18.8262 145.138 18.6901C144.766 18.5469 144.364 18.4287 143.935 18.3356C143.512 18.2354 143.072 18.1602 142.613 18.1101C142.162 18.0599 141.708 18.0349 141.249 18.0349C140.189 18.0349 139.244 18.1709 138.413 18.4431C137.583 18.708 136.881 19.084 136.308 19.571C135.735 20.0508 135.298 20.6273 134.997 21.3005C134.697 21.9737 134.546 22.7113 134.546 23.5134C134.546 24.3441 134.704 25.1068 135.019 25.8015C135.334 26.4961 135.781 27.0941 136.362 27.5954C136.942 28.0967 137.643 28.4906 138.467 28.777C139.291 29.0563 140.211 29.196 141.228 29.196C142.037 29.196 142.778 29.1065 143.451 28.9274C144.125 28.7412 144.712 28.4798 145.213 28.1433C145.714 27.8067 146.123 27.402 146.438 26.9294C146.753 26.4496 146.96 25.9125 147.061 25.3181H141.196V22.5144H150.122V22.5251L150.133 22.5144C150.312 23.3737 150.366 24.2116 150.294 25.028C150.23 25.8373 150.044 26.6035 149.736 27.3269C149.435 28.043 149.019 28.7019 148.489 29.3034C147.96 29.905 147.326 30.4242 146.588 30.861C145.85 31.2907 145.013 31.6273 144.074 31.8708C143.136 32.1071 142.109 32.2253 140.991 32.2253C139.43 32.2253 138.03 31.9961 136.791 31.5378C135.559 31.0795 134.514 30.4528 133.655 29.6579C132.795 28.863 132.136 27.932 131.678 26.8649C131.227 25.7979 131.001 24.6592 131.001 23.4489Z" fill="#1F242C"/>
<path d="M153.839 14.1784H157.019V31.9997H153.839V14.1784Z" fill="#1F242C"/>
<path d="M160.338 25.6618C160.338 24.7523 160.521 23.9001 160.886 23.1052C161.258 22.3102 161.785 21.6156 162.465 21.0212C163.153 20.4268 163.98 19.9577 164.947 19.614C165.92 19.2702 167.013 19.0983 168.223 19.0983C169.433 19.0983 170.522 19.2702 171.488 19.614C172.462 19.9577 173.29 20.4268 173.97 21.0212C174.657 21.6156 175.184 22.3102 175.549 23.1052C175.921 23.9001 176.108 24.7523 176.108 25.6618C176.108 26.5713 175.921 27.4235 175.549 28.2185C175.184 29.0134 174.657 29.708 173.97 30.3024C173.29 30.8968 172.462 31.3659 171.488 31.7097C170.522 32.0534 169.433 32.2253 168.223 32.2253C167.013 32.2253 165.92 32.0534 164.947 31.7097C163.98 31.3659 163.153 30.8968 162.465 30.3024C161.785 29.708 161.258 29.0134 160.886 28.2185C160.521 27.4235 160.338 26.5713 160.338 25.6618ZM163.679 25.6618C163.679 26.1703 163.779 26.6537 163.98 27.112C164.187 27.5632 164.485 27.9642 164.871 28.3151C165.265 28.6589 165.741 28.9346 166.3 29.1423C166.866 29.3428 167.507 29.4431 168.223 29.4431C168.939 29.4431 169.576 29.3428 170.135 29.1423C170.701 28.9346 171.177 28.6589 171.564 28.3151C171.958 27.9642 172.255 27.5632 172.455 27.112C172.663 26.6537 172.767 26.1703 172.767 25.6618C172.767 25.1533 172.663 24.67 172.455 24.2116C172.255 23.7533 171.958 23.3522 171.564 23.0085C171.177 22.6576 170.701 22.3819 170.135 22.1813C169.576 21.9737 168.939 21.8698 168.223 21.8698C167.507 21.8698 166.866 21.9737 166.3 22.1813C165.741 22.3819 165.265 22.6576 164.871 23.0085C164.485 23.3522 164.187 23.7533 163.98 24.2116C163.779 24.67 163.679 25.1533 163.679 25.6618Z" fill="#1F242C"/>
<path d="M177.569 19.3132H181.253L184.551 26.9401L185.518 29.0778L186.699 26.3063L183.563 19.3132H186.656L188.193 23.0729L189.729 19.3132H192.822L189.675 26.3063L190.867 29.0778L191.834 26.9401L195.132 19.3132H198.817L192.812 31.9997H189.353L188.193 29.5505L187.032 31.9997H183.573L177.569 19.3132Z" fill="#1F242C"/>
</svg>
