<svg width="207" height="50" viewBox="0 0 207 50" fill="none" xmlns="http://www.w3.org/2000/svg">
<g clip-path="url(#clip0_1706_4)">
<path d="M24.4742 3.00049L11.8441 29.9592L11.3351 31.048H9.04858L9.53038 29.9592L21.4065 3.00049H24.4742Z" fill="#5B9B37"/>
<path d="M42.8733 3.00049L32.1812 19.817L31.7049 20.5656H29.1299L29.5845 19.817L39.8056 3.00049H42.8733Z" fill="#5B9B37"/>
<path d="M30.6069 3.00049L21.7903 19.817L15.9027 31.048H13.6189L14.1579 29.9592L27.5392 3.00049H30.6069Z" fill="#5B9B37"/>
<path d="M36.7398 3.00049L26.9869 19.817L26.5541 20.5656H23.9736L24.3874 19.817L33.6721 3.00049H36.7398Z" fill="#5B9B37"/>
<path d="M30.3708 22.77L12.3784 50.9999H10.6282L27.8339 22.77H30.3708Z" fill="#F8BC26"/>
<path d="M25.2961 22.77L8.87696 50.9999H7.12671L22.7564 22.77H25.2961Z" fill="#F8BC26"/>
<path d="M35.4486 22.77L15.8801 50.9999H14.1299L32.909 22.77H35.4486Z" fill="#F8BC26"/>
<path d="M40.5253 22.77L19.3862 50.9999H17.636L37.9884 22.77H40.5253Z" fill="#F8BC26"/>
</g>
<path d="M63.1689 28.0049C63.7777 28.3486 64.3936 28.6602 65.0166 28.9395C65.6468 29.2116 66.2985 29.4443 66.9717 29.6377C67.6449 29.8239 68.3503 29.9671 69.0879 30.0674C69.8327 30.1676 70.624 30.2178 71.4619 30.2178C72.4717 30.2178 73.3311 30.1533 74.04 30.0244C74.749 29.8883 75.3255 29.7057 75.7695 29.4766C76.2207 29.2402 76.5465 28.9609 76.7471 28.6387C76.9548 28.3164 77.0586 27.9655 77.0586 27.5859C77.0586 26.9772 76.8044 26.4974 76.2959 26.1465C75.7874 25.7884 75.0033 25.6094 73.9434 25.6094C73.4779 25.6094 72.9873 25.6416 72.4717 25.7061C71.9561 25.7633 71.4333 25.8278 70.9033 25.8994C70.3805 25.971 69.8613 26.0391 69.3457 26.1035C68.8372 26.1608 68.3574 26.1895 67.9062 26.1895C67.1543 26.1895 66.431 26.0928 65.7363 25.8994C65.0488 25.7061 64.4365 25.416 63.8994 25.0293C63.3695 24.6426 62.9469 24.1592 62.6318 23.5791C62.3167 22.999 62.1592 22.3223 62.1592 21.5488C62.1592 21.0905 62.2201 20.6357 62.3418 20.1846C62.4707 19.7334 62.6712 19.3037 62.9434 18.8955C63.2227 18.4801 63.5807 18.097 64.0176 17.7461C64.4544 17.388 64.9808 17.0801 65.5967 16.8223C66.2197 16.5645 66.9359 16.3639 67.7451 16.2207C68.5615 16.0703 69.4889 15.9951 70.5273 15.9951C71.2793 15.9951 72.0348 16.0381 72.7939 16.124C73.5531 16.2028 74.2907 16.3174 75.0068 16.4678C75.7301 16.6182 76.4248 16.8008 77.0908 17.0156C77.7568 17.2233 78.3763 17.4561 78.9492 17.7139L77.4561 20.4639C76.9834 20.2562 76.4749 20.0664 75.9307 19.8945C75.3864 19.7155 74.8171 19.5615 74.2227 19.4326C73.6283 19.3037 73.0124 19.2035 72.375 19.1318C71.7448 19.0531 71.1003 19.0137 70.4414 19.0137C69.5033 19.0137 68.7298 19.0817 68.1211 19.2178C67.5195 19.3538 67.0397 19.5293 66.6816 19.7441C66.3236 19.9518 66.0729 20.1882 65.9297 20.4531C65.7936 20.7109 65.7256 20.9688 65.7256 21.2266C65.7256 21.7279 65.9512 22.1396 66.4023 22.4619C66.8535 22.777 67.541 22.9346 68.4648 22.9346C68.8372 22.9346 69.2633 22.9095 69.7432 22.8594C70.2301 22.8021 70.7386 22.7412 71.2686 22.6768C71.8057 22.6123 72.3499 22.555 72.9014 22.5049C73.46 22.4476 74.0007 22.4189 74.5234 22.4189C75.5117 22.4189 76.3854 22.5299 77.1445 22.752C77.9108 22.974 78.5518 23.2926 79.0674 23.708C79.583 24.1162 79.9733 24.6139 80.2383 25.2012C80.5033 25.7812 80.6357 26.4329 80.6357 27.1562C80.6357 28.123 80.4102 28.986 79.959 29.7451C79.515 30.4971 78.8776 31.1344 78.0469 31.6572C77.2233 32.1729 76.2279 32.5667 75.0605 32.8389C73.8932 33.1038 72.5934 33.2363 71.1611 33.2363C70.2158 33.2363 69.292 33.1755 68.3896 33.0537C67.4873 32.9391 66.6208 32.7744 65.79 32.5596C64.9665 32.3376 64.1787 32.0762 63.4268 31.7754C62.682 31.4674 61.9909 31.1309 61.3535 30.7656L63.1689 28.0049ZM83.2246 26.6621C83.2246 25.7526 83.4072 24.9004 83.7725 24.1055C84.1449 23.3105 84.6712 22.6159 85.3516 22.0215C86.0391 21.4271 86.8662 20.958 87.833 20.6143C88.807 20.2705 89.8991 20.0986 91.1094 20.0986C92.3197 20.0986 93.4082 20.2705 94.375 20.6143C95.349 20.958 96.1761 21.4271 96.8564 22.0215C97.5439 22.6159 98.0703 23.3105 98.4355 24.1055C98.8079 24.9004 98.9941 25.7526 98.9941 26.6621C98.9941 27.5716 98.8079 28.4238 98.4355 29.2188C98.0703 30.0137 97.5439 30.7083 96.8564 31.3027C96.1761 31.8971 95.349 32.3662 94.375 32.71C93.4082 33.0537 92.3197 33.2256 91.1094 33.2256C89.8991 33.2256 88.807 33.0537 87.833 32.71C86.8662 32.3662 86.0391 31.8971 85.3516 31.3027C84.6712 30.7083 84.1449 30.0137 83.7725 29.2188C83.4072 28.4238 83.2246 27.5716 83.2246 26.6621ZM86.5654 26.6621C86.5654 27.1706 86.6657 27.654 86.8662 28.1123C87.0739 28.5635 87.3711 28.9645 87.7578 29.3154C88.1517 29.6592 88.6279 29.9349 89.1865 30.1426C89.7523 30.3431 90.3932 30.4434 91.1094 30.4434C91.8255 30.4434 92.4629 30.3431 93.0215 30.1426C93.5872 29.9349 94.0635 29.6592 94.4502 29.3154C94.8441 28.9645 95.1413 28.5635 95.3418 28.1123C95.5495 27.654 95.6533 27.1706 95.6533 26.6621C95.6533 26.1536 95.5495 25.6702 95.3418 25.2119C95.1413 24.7536 94.8441 24.3525 94.4502 24.0088C94.0635 23.6579 93.5872 23.3822 93.0215 23.1816C92.4629 22.974 91.8255 22.8701 91.1094 22.8701C90.3932 22.8701 89.7523 22.974 89.1865 23.1816C88.6279 23.3822 88.1517 23.6579 87.7578 24.0088C87.3711 24.3525 87.0739 24.7536 86.8662 25.2119C86.6657 25.6702 86.5654 26.1536 86.5654 26.6621ZM102.292 15.1787H105.472V33H102.292V15.1787ZM108.952 29.0039C108.952 28.3952 109.085 27.8402 109.35 27.3389C109.615 26.8376 110.012 26.4079 110.542 26.0498C111.072 25.6846 111.731 25.4053 112.519 25.2119C113.313 25.0114 114.237 24.9111 115.29 24.9111C116.071 24.9111 116.891 24.9684 117.75 25.083C118.617 25.1976 119.508 25.373 120.425 25.6094C120.389 25.2083 120.267 24.8395 120.06 24.5029C119.852 24.1592 119.562 23.8656 119.189 23.6221C118.824 23.3714 118.38 23.1781 117.857 23.042C117.342 22.9059 116.755 22.8379 116.096 22.8379C115.738 22.8379 115.344 22.8594 114.914 22.9023C114.484 22.9453 114.04 23.0098 113.582 23.0957C113.124 23.1816 112.669 23.2891 112.218 23.418C111.774 23.5469 111.358 23.7008 110.972 23.8799L110.005 21.2695C110.485 21.0977 110.997 20.9401 111.541 20.7969C112.092 20.6536 112.655 20.5319 113.228 20.4316C113.8 20.3242 114.373 20.2419 114.946 20.1846C115.519 20.1273 116.074 20.0986 116.611 20.0986C118.982 20.0986 120.743 20.7038 121.896 21.9141C123.049 23.1243 123.626 24.9792 123.626 27.4785V33H120.446V31.8076C120.117 32.001 119.755 32.1836 119.361 32.3555C118.975 32.5273 118.552 32.6777 118.094 32.8066C117.635 32.9355 117.141 33.0358 116.611 33.1074C116.089 33.1862 115.534 33.2256 114.946 33.2256C113.958 33.2256 113.088 33.1182 112.336 32.9033C111.591 32.6885 110.968 32.3913 110.467 32.0117C109.965 31.6322 109.586 31.1882 109.328 30.6797C109.077 30.1641 108.952 29.6055 108.952 29.0039ZM112.304 28.8965C112.304 29.1042 112.357 29.3047 112.465 29.498C112.572 29.6842 112.744 29.8525 112.98 30.0029C113.217 30.1462 113.518 30.2643 113.883 30.3574C114.255 30.4434 114.703 30.4863 115.226 30.4863C115.784 30.4863 116.325 30.4362 116.848 30.3359C117.37 30.2357 117.857 30.1032 118.309 29.9385C118.76 29.7738 119.168 29.584 119.533 29.3691C119.898 29.1543 120.203 28.9323 120.446 28.7031V28.1445C119.959 28.0085 119.476 27.8939 118.996 27.8008C118.523 27.7077 118.069 27.6361 117.632 27.5859C117.202 27.5286 116.794 27.4893 116.407 27.4678C116.028 27.4463 115.695 27.4355 115.408 27.4355C114.814 27.4355 114.32 27.4749 113.926 27.5537C113.532 27.6325 113.213 27.7399 112.97 27.876C112.726 28.0049 112.554 28.1589 112.454 28.3379C112.354 28.5169 112.304 28.7031 112.304 28.8965ZM127.837 20.3242H131.017V22.1504C131.718 21.6276 132.46 21.1764 133.24 20.7969C134.021 20.4173 134.798 20.1273 135.571 19.9268L136.506 22.8379C135.281 22.9596 134.203 23.2354 133.272 23.665C132.349 24.0876 131.597 24.6855 131.017 25.459V33H127.837V20.3242ZM138.128 24.4492C138.128 23.2676 138.35 22.1647 138.794 21.1406C139.238 20.1094 139.886 19.2142 140.738 18.4551C141.59 17.696 142.636 17.098 143.875 16.6611C145.121 16.2243 146.546 16.0059 148.15 16.0059C148.73 16.0059 149.311 16.0381 149.891 16.1025C150.478 16.1598 151.054 16.2529 151.62 16.3818C152.193 16.5107 152.748 16.6755 153.285 16.876C153.829 17.0693 154.345 17.3021 154.832 17.5742L153.264 20.1523C152.97 19.9805 152.637 19.8265 152.265 19.6904C151.892 19.5472 151.491 19.429 151.062 19.3359C150.639 19.2357 150.199 19.1605 149.74 19.1104C149.289 19.0602 148.834 19.0352 148.376 19.0352C147.316 19.0352 146.371 19.1712 145.54 19.4434C144.709 19.7083 144.007 20.0843 143.435 20.5713C142.862 21.0511 142.425 21.6276 142.124 22.3008C141.823 22.974 141.673 23.7116 141.673 24.5137C141.673 25.3444 141.83 26.1071 142.146 26.8018C142.461 27.4964 142.908 28.0944 143.488 28.5957C144.068 29.097 144.77 29.4909 145.594 29.7773C146.417 30.0566 147.338 30.1963 148.354 30.1963C149.164 30.1963 149.905 30.1068 150.578 29.9277C151.251 29.7415 151.839 29.4801 152.34 29.1436C152.841 28.807 153.249 28.4023 153.564 27.9297C153.88 27.4499 154.087 26.9128 154.188 26.3184H148.322V23.5146H157.249V23.5254L157.26 23.5146C157.439 24.374 157.493 25.2119 157.421 26.0283C157.356 26.8376 157.17 27.6038 156.862 28.3271C156.562 29.0433 156.146 29.7021 155.616 30.3037C155.086 30.9053 154.452 31.4245 153.715 31.8613C152.977 32.291 152.139 32.6276 151.201 32.8711C150.263 33.1074 149.235 33.2256 148.118 33.2256C146.557 33.2256 145.157 32.9964 143.918 32.5381C142.686 32.0798 141.641 31.4531 140.781 30.6582C139.922 29.8633 139.263 28.9323 138.805 27.8652C138.354 26.7982 138.128 25.6595 138.128 24.4492ZM160.966 15.1787H164.146V33H160.966V15.1787ZM167.465 26.6621C167.465 25.7526 167.647 24.9004 168.013 24.1055C168.385 23.3105 168.911 22.6159 169.592 22.0215C170.279 21.4271 171.106 20.958 172.073 20.6143C173.047 20.2705 174.139 20.0986 175.35 20.0986C176.56 20.0986 177.648 20.2705 178.615 20.6143C179.589 20.958 180.416 21.4271 181.097 22.0215C181.784 22.6159 182.311 23.3105 182.676 24.1055C183.048 24.9004 183.234 25.7526 183.234 26.6621C183.234 27.5716 183.048 28.4238 182.676 29.2188C182.311 30.0137 181.784 30.7083 181.097 31.3027C180.416 31.8971 179.589 32.3662 178.615 32.71C177.648 33.0537 176.56 33.2256 175.35 33.2256C174.139 33.2256 173.047 33.0537 172.073 32.71C171.106 32.3662 170.279 31.8971 169.592 31.3027C168.911 30.7083 168.385 30.0137 168.013 29.2188C167.647 28.4238 167.465 27.5716 167.465 26.6621ZM170.806 26.6621C170.806 27.1706 170.906 27.654 171.106 28.1123C171.314 28.5635 171.611 28.9645 171.998 29.3154C172.392 29.6592 172.868 29.9349 173.427 30.1426C173.993 30.3431 174.633 30.4434 175.35 30.4434C176.066 30.4434 176.703 30.3431 177.262 30.1426C177.827 29.9349 178.304 29.6592 178.69 29.3154C179.084 28.9645 179.382 28.5635 179.582 28.1123C179.79 27.654 179.894 27.1706 179.894 26.6621C179.894 26.1536 179.79 25.6702 179.582 25.2119C179.382 24.7536 179.084 24.3525 178.69 24.0088C178.304 23.6579 177.827 23.3822 177.262 23.1816C176.703 22.974 176.066 22.8701 175.35 22.8701C174.633 22.8701 173.993 22.974 173.427 23.1816C172.868 23.3822 172.392 23.6579 171.998 24.0088C171.611 24.3525 171.314 24.7536 171.106 25.2119C170.906 25.6702 170.806 26.1536 170.806 26.6621ZM184.695 20.3135H188.38L191.678 27.9404L192.645 30.0781L193.826 27.3066L190.689 20.3135H193.783L195.319 24.0732L196.855 20.3135H199.949L196.802 27.3066L197.994 30.0781L198.961 27.9404L202.259 20.3135H205.943L199.938 33H196.479L195.319 30.5508L194.159 33H190.7L184.695 20.3135Z" fill="white"/>
<defs>
<clipPath id="clip0_1706_4">
<rect width="50" height="50" fill="white"/>
</clipPath>
</defs>
</svg>
